<svg xmlns="http://www.w3.org/2000/svg" xmlns:xlink="http://www.w3.org/1999/xlink" contentStyleType="text/css" height="409px" preserveAspectRatio="none" style="width:434px;height:409px;background:#FFFFFF;" version="1.1" viewBox="0 0 434 409" width="434px" zoomAndPan="magnify"><title>Smart Home System Management Code Diagram</title><defs/><g><text fill="#000000" font-family="sans-serif" font-size="14" font-weight="bold" lengthAdjust="spacing" textLength="384.6797" x="17.9805" y="22.9806">Smart Home System Management Code Diagram</text><!--class ManagementRepository--><g id="elem_ManagementRepository"><rect codeLine="7" fill="#F1F1F1" height="80.5574" id="ManagementRepository" rx="2.5" ry="2.5" style="stroke:#181818;stroke-width:0.5;" width="199.1093" x="7" y="322.2787"/><ellipse cx="22" cy="338.2787" fill="#ADD1B2" rx="11" ry="11" style="stroke:#181818;stroke-width:1.0;"/><path d="M24.4688,344.1537 Q23.8906,344.4662 23.25,344.6224 Q22.6094,344.7787 21.9063,344.7787 Q19.4063,344.7787 18.0781,343.1068 Q16.7656,341.4349 16.7656,338.2787 Q16.7656,335.1224 18.0781,333.4506 Q19.4063,331.7787 21.9063,331.7787 Q22.6094,331.7787 23.25,331.9349 Q23.9063,332.0912 24.4688,332.4037 L24.4688,335.2006 Q23.8438,334.6381 23.25,334.3724 Q22.6563,334.0912 22.0313,334.0912 Q20.6875,334.0912 20,335.1537 Q19.3125,336.2162 19.3125,338.2787 Q19.3125,340.3568 20,341.4193 Q20.6875,342.4662 22.0313,342.4662 Q22.6563,342.4662 23.25,342.2006 Q23.8438,341.9349 24.4688,341.3568 L24.4688,344.1537 Z " fill="#000000"/><text fill="#000000" font-family="sans-serif" font-size="14" lengthAdjust="spacing" textLength="167.1093" x="36" y="343.12">ManagementRepository</text><line style="stroke:#181818;stroke-width:0.5;" x1="8" x2="205.1093" y1="354.2787" y2="354.2787"/><line style="stroke:#181818;stroke-width:0.5;" x1="8" x2="205.1093" y1="362.2787" y2="362.2787"/><ellipse cx="18" cy="375.918" fill="#84BE84" rx="3" ry="3" style="stroke:#038048;stroke-width:1.0;"/><text fill="#000000" font-family="sans-serif" font-size="14" lengthAdjust="spacing" textLength="29.5939" x="27" y="379.2593">void</text><text fill="#000000" font-family="sans-serif" font-size="14" lengthAdjust="spacing" textLength="4.4452" x="56.5939" y="379.2593">&#160;</text><text fill="#000000" font-family="sans-serif" font-size="14" lengthAdjust="spacing" textLength="37.4601" x="61.0391" y="379.2593">find()</text><ellipse cx="18" cy="392.1967" fill="#84BE84" rx="3" ry="3" style="stroke:#038048;stroke-width:1.0;"/><text fill="#000000" font-family="sans-serif" font-size="14" lengthAdjust="spacing" textLength="29.5939" x="27" y="395.538">void</text><text fill="#000000" font-family="sans-serif" font-size="14" lengthAdjust="spacing" textLength="4.4452" x="56.5939" y="395.538">&#160;</text><text fill="#000000" font-family="sans-serif" font-size="14" lengthAdjust="spacing" textLength="43.6466" x="61.0391" y="395.538">save()</text></g><!--class ManagementProducer--><g id="elem_ManagementProducer"><rect codeLine="12" fill="#F1F1F1" height="64.2787" id="ManagementProducer" rx="2.5" ry="2.5" style="stroke:#181818;stroke-width:0.5;" width="186.6407" x="241" y="330.7787"/><ellipse cx="256" cy="346.7787" fill="#ADD1B2" rx="11" ry="11" style="stroke:#181818;stroke-width:1.0;"/><path d="M258.4688,352.6537 Q257.8906,352.9662 257.25,353.1224 Q256.6094,353.2787 255.9063,353.2787 Q253.4063,353.2787 252.0781,351.6068 Q250.7656,349.9349 250.7656,346.7787 Q250.7656,343.6224 252.0781,341.9506 Q253.4063,340.2787 255.9063,340.2787 Q256.6094,340.2787 257.25,340.4349 Q257.9063,340.5912 258.4688,340.9037 L258.4688,343.7006 Q257.8438,343.1381 257.25,342.8724 Q256.6563,342.5912 256.0313,342.5912 Q254.6875,342.5912 254,343.6537 Q253.3125,344.7162 253.3125,346.7787 Q253.3125,348.8568 254,349.9193 Q254.6875,350.9662 256.0313,350.9662 Q256.6563,350.9662 257.25,350.7006 Q257.8438,350.4349 258.4688,349.8568 L258.4688,352.6537 Z " fill="#000000"/><text fill="#000000" font-family="sans-serif" font-size="14" lengthAdjust="spacing" textLength="154.6407" x="270" y="351.62">ManagementProducer</text><line style="stroke:#181818;stroke-width:0.5;" x1="242" x2="426.6407" y1="362.7787" y2="362.7787"/><line style="stroke:#181818;stroke-width:0.5;" x1="242" x2="426.6407" y1="370.7787" y2="370.7787"/><ellipse cx="252" cy="384.418" fill="#84BE84" rx="3" ry="3" style="stroke:#038048;stroke-width:1.0;"/><text fill="#000000" font-family="sans-serif" font-size="14" lengthAdjust="spacing" textLength="29.5939" x="261" y="387.7593">void</text><text fill="#000000" font-family="sans-serif" font-size="14" lengthAdjust="spacing" textLength="4.4452" x="290.5939" y="387.7593">&#160;</text><text fill="#000000" font-family="sans-serif" font-size="14" lengthAdjust="spacing" textLength="41.1474" x="295.0391" y="387.7593">sent()</text></g><!--class ManagementService--><g id="elem_ManagementService"><rect codeLine="16" fill="#F1F1F1" height="64.2787" id="ManagementService" rx="2.5" ry="2.5" style="stroke:#181818;stroke-width:0.5;" width="175.8042" x="132.5" y="183.2787"/><ellipse cx="147.5" cy="199.2787" fill="#ADD1B2" rx="11" ry="11" style="stroke:#181818;stroke-width:1.0;"/><path d="M149.9688,205.1537 Q149.3906,205.4662 148.75,205.6224 Q148.1094,205.7787 147.4063,205.7787 Q144.9063,205.7787 143.5781,204.1068 Q142.2656,202.4349 142.2656,199.2787 Q142.2656,196.1224 143.5781,194.4506 Q144.9063,192.7787 147.4063,192.7787 Q148.1094,192.7787 148.75,192.9349 Q149.4063,193.0912 149.9688,193.4037 L149.9688,196.2006 Q149.3438,195.6381 148.75,195.3724 Q148.1563,195.0912 147.5313,195.0912 Q146.1875,195.0912 145.5,196.1537 Q144.8125,197.2162 144.8125,199.2787 Q144.8125,201.3568 145.5,202.4193 Q146.1875,203.4662 147.5313,203.4662 Q148.1563,203.4662 148.75,203.2006 Q149.3438,202.9349 149.9688,202.3568 L149.9688,205.1537 Z " fill="#000000"/><text fill="#000000" font-family="sans-serif" font-size="14" lengthAdjust="spacing" textLength="143.8042" x="161.5" y="204.12">ManagementService</text><line style="stroke:#181818;stroke-width:0.5;" x1="133.5" x2="307.3042" y1="215.2787" y2="215.2787"/><line style="stroke:#181818;stroke-width:0.5;" x1="133.5" x2="307.3042" y1="223.2787" y2="223.2787"/><ellipse cx="143.5" cy="236.918" fill="#84BE84" rx="3" ry="3" style="stroke:#038048;stroke-width:1.0;"/><text fill="#000000" font-family="sans-serif" font-size="14" lengthAdjust="spacing" textLength="29.5939" x="152.5" y="240.2593">void</text><text fill="#000000" font-family="sans-serif" font-size="14" lengthAdjust="spacing" textLength="4.4452" x="182.0939" y="240.2593">&#160;</text><text fill="#000000" font-family="sans-serif" font-size="14" lengthAdjust="spacing" textLength="71.8612" x="186.5391" y="240.2593">business()</text></g><!--class ManagementController--><g id="elem_ManagementController"><rect codeLine="20" fill="#F1F1F1" height="64.2787" id="ManagementController" rx="2.5" ry="2.5" style="stroke:#181818;stroke-width:0.5;" width="193.2164" x="124" y="44.2787"/><ellipse cx="139" cy="60.2787" fill="#ADD1B2" rx="11" ry="11" style="stroke:#181818;stroke-width:1.0;"/><path d="M141.4688,66.1537 Q140.8906,66.4662 140.25,66.6224 Q139.6094,66.7787 138.9063,66.7787 Q136.4063,66.7787 135.0781,65.1068 Q133.7656,63.4349 133.7656,60.2787 Q133.7656,57.1224 135.0781,55.4506 Q136.4063,53.7787 138.9063,53.7787 Q139.6094,53.7787 140.25,53.9349 Q140.9063,54.0912 141.4688,54.4037 L141.4688,57.2006 Q140.8438,56.6381 140.25,56.3724 Q139.6563,56.0912 139.0313,56.0912 Q137.6875,56.0912 137,57.1537 Q136.3125,58.2162 136.3125,60.2787 Q136.3125,62.3568 137,63.4193 Q137.6875,64.4662 139.0313,64.4662 Q139.6563,64.4662 140.25,64.2006 Q140.8438,63.9349 141.4688,63.3568 L141.4688,66.1537 Z " fill="#000000"/><text fill="#000000" font-family="sans-serif" font-size="14" lengthAdjust="spacing" textLength="161.2164" x="153" y="65.12">ManagementController</text><line style="stroke:#181818;stroke-width:0.5;" x1="125" x2="316.2164" y1="76.2787" y2="76.2787"/><line style="stroke:#181818;stroke-width:0.5;" x1="125" x2="316.2164" y1="84.2787" y2="84.2787"/><ellipse cx="135" cy="97.918" fill="#84BE84" rx="3" ry="3" style="stroke:#038048;stroke-width:1.0;"/><text fill="#000000" font-family="sans-serif" font-size="14" lengthAdjust="spacing" textLength="29.5939" x="144" y="101.2593">void</text><text fill="#000000" font-family="sans-serif" font-size="14" lengthAdjust="spacing" textLength="4.4452" x="173.5939" y="101.2593">&#160;</text><text fill="#000000" font-family="sans-serif" font-size="14" lengthAdjust="spacing" textLength="28.3443" x="178.0391" y="101.2593">do()</text></g><!--link ManagementController to ManagementService--><g id="link_ManagementController_ManagementService"><path codeLine="24" d="M220.5,108.3687 C220.5,130.6287 220.5,160.4987 220.5,182.8387 " fill="none" id="ManagementController-ManagementService" style="stroke:#666666;stroke-width:1.0;"/><text fill="#666666" font-family="sans-serif" font-size="12" lengthAdjust="spacing" textLength="49.7285" x="221.5" y="150.4174">includes</text><text fill="#666666" font-family="sans-serif" font-size="12" lengthAdjust="spacing" textLength="7.6348" x="212.8213" y="127.5377">1</text><text fill="#666666" font-family="sans-serif" font-size="12" lengthAdjust="spacing" textLength="7.6348" x="212.8252" y="172.5347">1</text></g><!--link ManagementService to ManagementProducer--><g id="link_ManagementService_ManagementProducer"><path codeLine="25" d="M244.96,247.4887 C264.19,272.0387 290.86,306.0787 310.08,330.6187 " fill="none" id="ManagementService-ManagementProducer" style="stroke:#666666;stroke-width:1.0;"/><text fill="#666666" font-family="sans-serif" font-size="12" lengthAdjust="spacing" textLength="49.7285" x="278.5" y="289.4174">includes</text><text fill="#666666" font-family="sans-serif" font-size="12" lengthAdjust="spacing" textLength="7.6348" x="242.3687" y="266.6825">1</text><text fill="#666666" font-family="sans-serif" font-size="12" lengthAdjust="spacing" textLength="7.6348" x="296.7384" y="319.897">1</text></g><!--link ManagementService to ManagementRepository--><g id="link_ManagementService_ManagementRepository"><path codeLine="26" d="M196.04,247.4887 C178.97,269.2887 156.03,298.5587 137.65,322.0187 " fill="none" id="ManagementService-ManagementRepository" style="stroke:#666666;stroke-width:1.0;"/><text fill="#666666" font-family="sans-serif" font-size="12" lengthAdjust="spacing" textLength="49.7285" x="171.5" y="289.4174">includes</text><text fill="#666666" font-family="sans-serif" font-size="12" lengthAdjust="spacing" textLength="7.6348" x="183.3589" y="266.6825">1</text><text fill="#666666" font-family="sans-serif" font-size="12" lengthAdjust="spacing" textLength="7.6348" x="135.7964" y="311.5739">1</text></g><!--SRC=[bP0zJmCn38Rt_0hJ2OIk9oIchiVGWQAg5JDA4zDQIkB8yHsg4F-TyA7gqDt2v8-yZ-FNIXeGzj6AmffZJSz5CSB69dl4Y4cXOu_mGFOeDXgZd44P3gpA4Jm9EYLEnbnHSg7ts4k0asekgxOL-xOyafxwGrzG72Uj0vUEOxiZPyNp4s76q7RtpJROfC-RnpRQke3Kral7CNFw8d8VWp4ks596c-qmSo5bESEx0RWTc3oyKlBNDvUos05h-J6bjyA-ToWZjjJsl7YFCf33aROweeIbpEkxQbKuX3_ZFV-8PsMBkmKqpNUOVhk2t-CMCtsS9I_k_e-EpZg2Fm40]--></g></svg>