<svg xmlns="http://www.w3.org/2000/svg" xmlns:xlink="http://www.w3.org/1999/xlink" contentStyleType="text/css" height="409px" preserveAspectRatio="none" style="width:402px;height:409px;background:#FFFFFF;" version="1.1" viewBox="0 0 402 409" width="402px" zoomAndPan="magnify"><title>Smart Home System Telemetry Code Diagram</title><defs/><g><text fill="#000000" font-family="sans-serif" font-size="14" font-weight="bold" lengthAdjust="spacing" textLength="361.798" x="13.1898" y="22.9806">Smart Home System Telemetry Code Diagram</text><!--class TelemetryRepository--><g id="elem_TelemetryRepository"><rect codeLine="7" fill="#F1F1F1" height="80.5574" id="TelemetryRepository" rx="2.5" ry="2.5" style="stroke:#181818;stroke-width:0.5;" width="178.358" x="7" y="322.2787"/><ellipse cx="22" cy="338.2787" fill="#ADD1B2" rx="11" ry="11" style="stroke:#181818;stroke-width:1.0;"/><path d="M24.4688,344.1537 Q23.8906,344.4662 23.25,344.6224 Q22.6094,344.7787 21.9063,344.7787 Q19.4063,344.7787 18.0781,343.1068 Q16.7656,341.4349 16.7656,338.2787 Q16.7656,335.1224 18.0781,333.4506 Q19.4063,331.7787 21.9063,331.7787 Q22.6094,331.7787 23.25,331.9349 Q23.9063,332.0912 24.4688,332.4037 L24.4688,335.2006 Q23.8438,334.6381 23.25,334.3724 Q22.6563,334.0912 22.0313,334.0912 Q20.6875,334.0912 20,335.1537 Q19.3125,336.2162 19.3125,338.2787 Q19.3125,340.3568 20,341.4193 Q20.6875,342.4662 22.0313,342.4662 Q22.6563,342.4662 23.25,342.2006 Q23.8438,341.9349 24.4688,341.3568 L24.4688,344.1537 Z " fill="#000000"/><text fill="#000000" font-family="sans-serif" font-size="14" lengthAdjust="spacing" textLength="146.358" x="36" y="343.12">TelemetryRepository</text><line style="stroke:#181818;stroke-width:0.5;" x1="8" x2="184.358" y1="354.2787" y2="354.2787"/><line style="stroke:#181818;stroke-width:0.5;" x1="8" x2="184.358" y1="362.2787" y2="362.2787"/><ellipse cx="18" cy="375.918" fill="#84BE84" rx="3" ry="3" style="stroke:#038048;stroke-width:1.0;"/><text fill="#000000" font-family="sans-serif" font-size="14" lengthAdjust="spacing" textLength="29.5939" x="27" y="379.2593">void</text><text fill="#000000" font-family="sans-serif" font-size="14" lengthAdjust="spacing" textLength="4.4452" x="56.5939" y="379.2593">&#160;</text><text fill="#000000" font-family="sans-serif" font-size="14" lengthAdjust="spacing" textLength="37.4601" x="61.0391" y="379.2593">find()</text><ellipse cx="18" cy="392.1967" fill="#84BE84" rx="3" ry="3" style="stroke:#038048;stroke-width:1.0;"/><text fill="#000000" font-family="sans-serif" font-size="14" lengthAdjust="spacing" textLength="29.5939" x="27" y="395.538">void</text><text fill="#000000" font-family="sans-serif" font-size="14" lengthAdjust="spacing" textLength="4.4452" x="56.5939" y="395.538">&#160;</text><text fill="#000000" font-family="sans-serif" font-size="14" lengthAdjust="spacing" textLength="43.6466" x="61.0391" y="395.538">save()</text></g><!--class TelemetryConsumer--><g id="elem_TelemetryConsumer"><rect codeLine="12" fill="#F1F1F1" height="64.2787" id="TelemetryConsumer" rx="2.5" ry="2.5" style="stroke:#181818;stroke-width:0.5;" width="174.6776" x="220.5" y="330.7787"/><ellipse cx="235.5" cy="346.7787" fill="#ADD1B2" rx="11" ry="11" style="stroke:#181818;stroke-width:1.0;"/><path d="M237.9688,352.6537 Q237.3906,352.9662 236.75,353.1224 Q236.1094,353.2787 235.4063,353.2787 Q232.9063,353.2787 231.5781,351.6068 Q230.2656,349.9349 230.2656,346.7787 Q230.2656,343.6224 231.5781,341.9506 Q232.9063,340.2787 235.4063,340.2787 Q236.1094,340.2787 236.75,340.4349 Q237.4063,340.5912 237.9688,340.9037 L237.9688,343.7006 Q237.3438,343.1381 236.75,342.8724 Q236.1563,342.5912 235.5313,342.5912 Q234.1875,342.5912 233.5,343.6537 Q232.8125,344.7162 232.8125,346.7787 Q232.8125,348.8568 233.5,349.9193 Q234.1875,350.9662 235.5313,350.9662 Q236.1563,350.9662 236.75,350.7006 Q237.3438,350.4349 237.9688,349.8568 L237.9688,352.6537 Z " fill="#000000"/><text fill="#000000" font-family="sans-serif" font-size="14" lengthAdjust="spacing" textLength="142.6776" x="249.5" y="351.62">TelemetryConsumer</text><line style="stroke:#181818;stroke-width:0.5;" x1="221.5" x2="394.1776" y1="362.7787" y2="362.7787"/><line style="stroke:#181818;stroke-width:0.5;" x1="221.5" x2="394.1776" y1="370.7787" y2="370.7787"/><ellipse cx="231.5" cy="384.418" fill="#84BE84" rx="3" ry="3" style="stroke:#038048;stroke-width:1.0;"/><text fill="#000000" font-family="sans-serif" font-size="14" lengthAdjust="spacing" textLength="29.5939" x="240.5" y="387.7593">void</text><text fill="#000000" font-family="sans-serif" font-size="14" lengthAdjust="spacing" textLength="4.4452" x="270.0939" y="387.7593">&#160;</text><text fill="#000000" font-family="sans-serif" font-size="14" lengthAdjust="spacing" textLength="62.322" x="274.5391" y="387.7593">receive()</text></g><!--class TelemetryService--><g id="elem_TelemetryService"><rect codeLine="16" fill="#F1F1F1" height="64.2787" id="TelemetryService" rx="2.5" ry="2.5" style="stroke:#181818;stroke-width:0.5;" width="155.053" x="124.5" y="183.2787"/><ellipse cx="139.5" cy="199.2787" fill="#ADD1B2" rx="11" ry="11" style="stroke:#181818;stroke-width:1.0;"/><path d="M141.9688,205.1537 Q141.3906,205.4662 140.75,205.6224 Q140.1094,205.7787 139.4063,205.7787 Q136.9063,205.7787 135.5781,204.1068 Q134.2656,202.4349 134.2656,199.2787 Q134.2656,196.1224 135.5781,194.4506 Q136.9063,192.7787 139.4063,192.7787 Q140.1094,192.7787 140.75,192.9349 Q141.4063,193.0912 141.9688,193.4037 L141.9688,196.2006 Q141.3438,195.6381 140.75,195.3724 Q140.1563,195.0912 139.5313,195.0912 Q138.1875,195.0912 137.5,196.1537 Q136.8125,197.2162 136.8125,199.2787 Q136.8125,201.3568 137.5,202.4193 Q138.1875,203.4662 139.5313,203.4662 Q140.1563,203.4662 140.75,203.2006 Q141.3438,202.9349 141.9688,202.3568 L141.9688,205.1537 Z " fill="#000000"/><text fill="#000000" font-family="sans-serif" font-size="14" lengthAdjust="spacing" textLength="123.053" x="153.5" y="204.12">TelemetryService</text><line style="stroke:#181818;stroke-width:0.5;" x1="125.5" x2="278.553" y1="215.2787" y2="215.2787"/><line style="stroke:#181818;stroke-width:0.5;" x1="125.5" x2="278.553" y1="223.2787" y2="223.2787"/><ellipse cx="135.5" cy="236.918" fill="#84BE84" rx="3" ry="3" style="stroke:#038048;stroke-width:1.0;"/><text fill="#000000" font-family="sans-serif" font-size="14" lengthAdjust="spacing" textLength="29.5939" x="144.5" y="240.2593">void</text><text fill="#000000" font-family="sans-serif" font-size="14" lengthAdjust="spacing" textLength="4.4452" x="174.0939" y="240.2593">&#160;</text><text fill="#000000" font-family="sans-serif" font-size="14" lengthAdjust="spacing" textLength="71.8612" x="178.5391" y="240.2593">business()</text></g><!--class TelemetryController--><g id="elem_TelemetryController"><rect codeLine="20" fill="#F1F1F1" height="64.2787" id="TelemetryController" rx="2.5" ry="2.5" style="stroke:#181818;stroke-width:0.5;" width="172.4652" x="116" y="44.2787"/><ellipse cx="131" cy="60.2787" fill="#ADD1B2" rx="11" ry="11" style="stroke:#181818;stroke-width:1.0;"/><path d="M133.4688,66.1537 Q132.8906,66.4662 132.25,66.6224 Q131.6094,66.7787 130.9063,66.7787 Q128.4063,66.7787 127.0781,65.1068 Q125.7656,63.4349 125.7656,60.2787 Q125.7656,57.1224 127.0781,55.4506 Q128.4063,53.7787 130.9063,53.7787 Q131.6094,53.7787 132.25,53.9349 Q132.9063,54.0912 133.4688,54.4037 L133.4688,57.2006 Q132.8438,56.6381 132.25,56.3724 Q131.6563,56.0912 131.0313,56.0912 Q129.6875,56.0912 129,57.1537 Q128.3125,58.2162 128.3125,60.2787 Q128.3125,62.3568 129,63.4193 Q129.6875,64.4662 131.0313,64.4662 Q131.6563,64.4662 132.25,64.2006 Q132.8438,63.9349 133.4688,63.3568 L133.4688,66.1537 Z " fill="#000000"/><text fill="#000000" font-family="sans-serif" font-size="14" lengthAdjust="spacing" textLength="140.4652" x="145" y="65.12">TelemetryController</text><line style="stroke:#181818;stroke-width:0.5;" x1="117" x2="287.4652" y1="76.2787" y2="76.2787"/><line style="stroke:#181818;stroke-width:0.5;" x1="117" x2="287.4652" y1="84.2787" y2="84.2787"/><ellipse cx="127" cy="97.918" fill="#84BE84" rx="3" ry="3" style="stroke:#038048;stroke-width:1.0;"/><text fill="#000000" font-family="sans-serif" font-size="14" lengthAdjust="spacing" textLength="29.5939" x="136" y="101.2593">void</text><text fill="#000000" font-family="sans-serif" font-size="14" lengthAdjust="spacing" textLength="4.4452" x="165.5939" y="101.2593">&#160;</text><text fill="#000000" font-family="sans-serif" font-size="14" lengthAdjust="spacing" textLength="28.3443" x="170.0391" y="101.2593">do()</text></g><!--link TelemetryController to TelemetryService--><g id="link_TelemetryController_TelemetryService"><path codeLine="24" d="M202,108.3687 C202,130.6287 202,160.4987 202,182.8387 " fill="none" id="TelemetryController-TelemetryService" style="stroke:#666666;stroke-width:1.0;"/><text fill="#666666" font-family="sans-serif" font-size="12" lengthAdjust="spacing" textLength="49.7285" x="203" y="150.4174">includes</text><text fill="#666666" font-family="sans-serif" font-size="12" lengthAdjust="spacing" textLength="7.6348" x="194.2956" y="127.5377">1</text><text fill="#666666" font-family="sans-serif" font-size="12" lengthAdjust="spacing" textLength="7.6348" x="194.298" y="172.5347">1</text></g><!--link TelemetryService to TelemetryConsumer--><g id="link_TelemetryService_TelemetryConsumer"><path codeLine="25" d="M224.74,247.4887 C242.62,272.0387 267.42,306.0787 285.3,330.6187 " fill="none" id="TelemetryService-TelemetryConsumer" style="stroke:#666666;stroke-width:1.0;"/><text fill="#666666" font-family="sans-serif" font-size="12" lengthAdjust="spacing" textLength="49.7285" x="256" y="289.4174">includes</text><text fill="#666666" font-family="sans-serif" font-size="12" lengthAdjust="spacing" textLength="7.6348" x="221.7682" y="266.6825">1</text><text fill="#666666" font-family="sans-serif" font-size="12" lengthAdjust="spacing" textLength="7.6348" x="272.3519" y="319.897">1</text></g><!--link TelemetryService to TelemetryRepository--><g id="link_TelemetryService_TelemetryRepository"><path codeLine="26" d="M179.26,247.4887 C163.38,269.2887 142.06,298.5587 124.96,322.0187 " fill="none" id="TelemetryService-TelemetryRepository" style="stroke:#666666;stroke-width:1.0;"/><text fill="#666666" font-family="sans-serif" font-size="12" lengthAdjust="spacing" textLength="49.7285" x="157" y="289.4174">includes</text><text fill="#666666" font-family="sans-serif" font-size="12" lengthAdjust="spacing" textLength="7.6348" x="166.908" y="266.6825">1</text><text fill="#666666" font-family="sans-serif" font-size="12" lengthAdjust="spacing" textLength="7.6348" x="122.6797" y="311.5739">1</text></g><!--SRC=[bP0zJmCn38Rt_0hJ2OIk9oIchiVG0H1gOKPfObfBIHmvlaCLuhyJFbGENJimsKxUn_Ph9Gq8wsX5OScnflkY6E4H0qPKsKF77k66x5PiD4OvWp9iM9KZU19qIfoCEQFaGk-nbm0xrLmMRIlsTRubtVMRlg0uJef9vuvZko9dnVCzOSRGTjVDGx19d-vkssZhVAbFpnt7pEcJo7qCnhXWI_bTR8MP2odN5TyCmEN0vE65aZ-_E9J53bZBzmdSSIfzH1cXrGdI2VaQPI278tLrH0bBETLTXKFuqz_pj_QOQdOrWwRv2fEP2_YvR36JlsFSmTf_mT51H-W7]--></g></svg>